<svg xmlns="http://www.w3.org/2000/svg" width="510.00" height="240.00" viewBox="0 0 510.00 240.00"><rect width="510.00" height="240.00" fill="#ffffff"/><rect x="0.00" y="0.00" width="168.00" height="18" rx="4" fill="#eff6ff" stroke="#60a5fa" stroke-width="1"/><text x="84.00" y="12.40" font-family="DejaVu Sans" font-size="8.50" fill="#1e3a8a" text-anchor="middle">Karyawan</text><rect x="174.00" y="0.00" width="168.00" height="18" rx="4" fill="#fff7ed" stroke="#fb923c" stroke-width="1"/><text x="258.00" y="12.40" font-family="DejaVu Sans" font-size="8.50" fill="#7c2d12" text-anchor="middle">HR / Atasan Berwenang</text><line x1="171.00" y1="22.00" x2="171.00" y2="234.00" stroke="#e2e8f0" stroke-width="1" stroke-dasharray="2,3"/><rect x="348.00" y="0.00" width="162.00" height="18" rx="4" fill="#ecfdf5" stroke="#34d399" stroke-width="1"/><text x="429.00" y="12.40" font-family="DejaVu Sans" font-size="8.50" fill="#065f46" text-anchor="middle">Sistem</text><line x1="345.00" y1="22.00" x2="345.00" y2="234.00" stroke="#e2e8f0" stroke-width="1" stroke-dasharray="2,3"/><rect x="6.00" y="30.00" width="156.00" height="52.00" rx="5.00" fill="#eff6ff" stroke="#60a5fa" stroke-width="1"/><text x="84.00" y="48.95" font-family="DejaVu Sans" font-size="7.50" fill="#1e3a8a" text-anchor="middle">Dari menu Absensi Saya: ajukan</text><text x="84.00" y="58.55" font-family="DejaVu Sans" font-size="7.50" fill="#1e3a8a" text-anchor="middle">koreksi — tanggal, usulan jam</text><text x="84.00" y="68.15" font-family="DejaVu Sans" font-size="7.50" fill="#1e3a8a" text-anchor="middle">masuk / pulang, alasan</text><line x1="162.00" y1="56.00" x2="176.50" y2="56.00" stroke="#94a3b8" stroke-width="1"/><polygon points="180.00,56.00 175.80,53.06 175.80,58.94" fill="#94a3b8"/><rect x="180.00" y="30.00" width="156.00" height="52.00" rx="5.00" fill="#fff7ed" stroke="#fb923c" stroke-width="1"/><text x="258.00" y="48.95" font-family="DejaVu Sans" font-size="7.50" fill="#7c2d12" text-anchor="middle">Koreksi masuk daftar Menunggu,</text><text x="258.00" y="58.55" font-family="DejaVu Sans" font-size="7.50" fill="#7c2d12" text-anchor="middle">tersaring menurut cakupan data</text><text x="258.00" y="68.15" font-family="DejaVu Sans" font-size="7.50" fill="#7c2d12" text-anchor="middle">petugas</text><line x1="258.00" y1="82.00" x2="258.00" y2="96.50" stroke="#94a3b8" stroke-width="1"/><polygon points="258.00,100.00 255.06,95.80 260.94,95.80" fill="#94a3b8"/><polygon points="258.00,100.00 336.00,128.00 258.00,156.00 180.00,128.00" fill="#fefce8" stroke="#eab308" stroke-width="1"/><text x="258.00" y="130.89" font-family="DejaVu Sans" font-size="8.50" fill="#713f12" text-anchor="middle">Koreksi disetujui?</text><path d="M 180.00 128.00 L 84.00 128.00 L 84.00 152.00" fill="none" stroke="#94a3b8" stroke-width="1"/><polygon points="84.00,152.00 81.06,147.80 86.94,147.80" fill="#94a3b8"/><rect x="119.81" y="117.62" width="24.37" height="8.85" fill="#ffffff"/><text x="132.00" y="124.00" font-family="DejaVu Sans" font-size="7.50" fill="#475569" text-anchor="middle">Tidak</text><rect x="6.00" y="152.00" width="156.00" height="44.00" rx="5.00" fill="#fee2e2" stroke="#f87171" stroke-width="1"/><text x="84.00" y="171.75" font-family="DejaVu Sans" font-size="7.50" fill="#7f1d1d" text-anchor="middle">Status Ditolak beserta catatan</text><text x="84.00" y="181.35" font-family="DejaVu Sans" font-size="7.50" fill="#7f1d1d" text-anchor="middle">alasan</text><line x1="336.00" y1="128.00" x2="352.50" y2="128.00" stroke="#94a3b8" stroke-width="1"/><polygon points="356.00,128.00 351.80,125.06 351.80,130.94" fill="#94a3b8"/><rect x="339.41" y="117.62" width="13.18" height="8.85" fill="#ffffff"/><text x="346.00" y="124.00" font-family="DejaVu Sans" font-size="7.50" fill="#475569" text-anchor="middle">Ya</text><rect x="356.00" y="100.00" width="150.00" height="56.00" rx="5.00" fill="#ecfdf5" stroke="#34d399" stroke-width="1"/><text x="431.00" y="120.95" font-family="DejaVu Sans" font-size="7.50" fill="#065f46" text-anchor="middle">Satu transaksi: jam absensi</text><text x="431.00" y="130.55" font-family="DejaVu Sans" font-size="7.50" fill="#065f46" text-anchor="middle">diperbarui lalu status koreksi</text><text x="431.00" y="140.15" font-family="DejaVu Sans" font-size="7.50" fill="#065f46" text-anchor="middle">disetujui</text><line x1="431.00" y1="156.00" x2="431.00" y2="172.50" stroke="#94a3b8" stroke-width="1"/><polygon points="431.00,176.00 428.06,171.80 433.94,171.80" fill="#94a3b8"/><rect x="356.00" y="176.00" width="150.00" height="44.00" rx="5.00" fill="#dcfce7" stroke="#22c55e" stroke-width="1"/><text x="431.00" y="195.75" font-family="DejaVu Sans" font-size="7.50" fill="#14532d" text-anchor="middle">Status hari itu dihitung ulang</text><text x="431.00" y="205.35" font-family="DejaVu Sans" font-size="7.50" fill="#14532d" text-anchor="middle">dari jam yang baru</text></svg>